<svg width="141" height="23" viewBox="0 0 141 23" fill="none" xmlns="http://www.w3.org/2000/svg">
<path d="M132.675 17.854H130.971V5.998H132.507V9.334L132.675 9.454V17.854ZM132.675 11.422H132.195V9.238H132.627C132.739 8.598 132.963 8.014 133.299 7.486C133.651 6.958 134.115 6.542 134.691 6.238C135.267 5.918 135.971 5.758 136.803 5.758C137.715 5.758 138.459 5.958 139.035 6.358C139.627 6.758 140.059 7.278 140.331 7.918C140.603 8.558 140.739 9.246 140.739 9.982V11.158H139.035V10.246C139.035 9.238 138.811 8.486 138.363 7.99C137.915 7.494 137.171 7.246 136.131 7.246C134.931 7.246 134.051 7.606 133.491 8.326C132.947 9.046 132.675 10.078 132.675 11.422Z" fill="black"/>
<path d="M122.783 18.094C121.519 18.094 120.415 17.846 119.471 17.35C118.527 16.838 117.799 16.118 117.287 15.19C116.791 14.262 116.543 13.174 116.543 11.926C116.543 10.726 116.791 9.662 117.287 8.734C117.799 7.806 118.519 7.078 119.447 6.55C120.391 6.022 121.495 5.758 122.759 5.758C123.927 5.758 124.951 5.974 125.831 6.406C126.727 6.838 127.431 7.47 127.943 8.302C128.455 9.118 128.711 10.118 128.711 11.302C128.711 11.51 128.695 11.71 128.663 11.902C128.647 12.078 128.623 12.246 128.591 12.406H117.599V11.35H127.559L127.055 11.974C127.071 11.814 127.079 11.654 127.079 11.494C127.095 11.334 127.103 11.166 127.103 10.99C127.103 9.742 126.727 8.798 125.975 8.158C125.223 7.502 124.143 7.174 122.735 7.174C121.119 7.174 119.951 7.582 119.231 8.398C118.511 9.198 118.151 10.302 118.151 11.71V12.094C118.151 13.518 118.511 14.638 119.231 15.454C119.951 16.27 121.127 16.678 122.759 16.678C124.151 16.678 125.175 16.438 125.831 15.958C126.503 15.462 126.839 14.782 126.839 13.918V13.75H128.543V13.918C128.543 14.75 128.295 15.478 127.799 16.102C127.303 16.726 126.615 17.214 125.735 17.566C124.871 17.918 123.887 18.094 122.783 18.094Z" fill="black"/>
<path d="M108.209 22.174C107.137 22.174 106.169 21.998 105.305 21.646C104.457 21.294 103.785 20.798 103.289 20.158C102.793 19.518 102.545 18.734 102.545 17.806H104.249C104.249 18.494 104.401 19.054 104.705 19.486C105.009 19.918 105.457 20.23 106.049 20.422C106.657 20.614 107.401 20.71 108.281 20.71C109.305 20.71 110.129 20.59 110.753 20.35C111.393 20.11 111.849 19.702 112.121 19.126C112.409 18.566 112.553 17.798 112.553 16.822V10.006L112.721 9.79V5.998H114.257V16.726C114.257 18.038 114.001 19.086 113.489 19.87C112.977 20.67 112.265 21.254 111.353 21.622C110.457 21.99 109.409 22.174 108.209 22.174ZM107.465 16.894C106.281 16.894 105.265 16.654 104.417 16.174C103.569 15.694 102.913 15.038 102.449 14.206C102.001 13.374 101.777 12.414 101.777 11.326C101.777 10.238 102.009 9.278 102.473 8.446C102.953 7.614 103.633 6.95799 104.513 6.47799C105.393 5.998 106.441 5.758 107.657 5.758C108.905 5.758 109.977 6.046 110.873 6.622C111.785 7.198 112.361 8.006 112.601 9.046H113.105L113.009 10.99H112.553C112.553 10.206 112.361 9.542 111.977 8.998C111.609 8.438 111.089 8.014 110.417 7.726C109.761 7.422 108.969 7.27 108.041 7.27C107.161 7.27 106.377 7.398 105.689 7.654C105.001 7.91 104.457 8.334 104.057 8.926C103.673 9.518 103.481 10.318 103.481 11.326C103.481 12.334 103.673 13.134 104.057 13.726C104.441 14.318 104.961 14.742 105.617 14.998C106.289 15.254 107.057 15.382 107.921 15.382C109.377 15.382 110.513 15.038 111.329 14.35C112.145 13.646 112.553 12.662 112.553 11.398H113.009V13.726H112.433C112.193 14.638 111.641 15.398 110.777 16.006C109.929 16.598 108.825 16.894 107.465 16.894Z" fill="black"/>
<path d="M99.6046 17.854H97.9006V11.182C97.9006 9.95 97.5886 8.998 96.9646 8.326C96.3566 7.654 95.3726 7.318 94.0126 7.318C92.5566 7.318 91.4606 7.734 90.7246 8.566C89.9886 9.398 89.6206 10.582 89.6206 12.118H89.1646L89.1406 9.718H89.5726C89.7166 9.046 89.9966 8.406 90.4126 7.798C90.8286 7.19 91.3806 6.702 92.0686 6.334C92.7726 5.95 93.6206 5.758 94.6126 5.758C95.7326 5.758 96.6606 5.998 97.3966 6.47799C98.1326 6.942 98.6846 7.566 99.0526 8.35C99.4206 9.134 99.6046 9.998 99.6046 10.942V17.854ZM89.6206 17.854H87.9166V5.998H89.4526V9.766L89.6206 9.886V17.854Z" fill="black"/>
<path d="M85.1155 17.854H83.5795V14.614L83.4595 14.518V10.51C83.4595 9.358 83.1875 8.534 82.6435 8.038C82.0995 7.542 81.1715 7.294 79.8595 7.294C78.5955 7.294 77.6275 7.534 76.9555 8.014C76.2995 8.478 75.9715 9.238 75.9715 10.294V10.39H74.2675V10.294C74.2675 9.446 74.4915 8.686 74.9395 8.014C75.3875 7.326 76.0355 6.782 76.8835 6.382C77.7315 5.966 78.7635 5.758 79.9795 5.758C81.1795 5.758 82.1555 5.966 82.9075 6.382C83.6755 6.798 84.2355 7.358 84.5875 8.062C84.9395 8.766 85.1155 9.558 85.1155 10.438V17.854ZM77.9155 18.094C76.7475 18.094 75.8035 17.83 75.0835 17.302C74.3635 16.758 74.0035 16.014 74.0035 15.07C74.0035 14.414 74.1635 13.886 74.4835 13.486C74.8195 13.07 75.2755 12.75 75.8515 12.526C76.4275 12.302 77.0835 12.142 77.8195 12.046L83.6995 11.398V12.526L78.3475 13.126C77.4515 13.206 76.7875 13.374 76.3555 13.63C75.9235 13.886 75.7075 14.326 75.7075 14.95C75.7075 15.542 75.9155 15.998 76.3315 16.318C76.7475 16.622 77.4035 16.774 78.2995 16.774C79.2755 16.774 80.1475 16.63 80.9155 16.342C81.6835 16.038 82.2995 15.582 82.7635 14.974C83.2275 14.366 83.4595 13.59 83.4595 12.646L83.7955 12.766V14.662H83.4595C83.1075 15.75 82.4435 16.598 81.4675 17.206C80.4915 17.798 79.3075 18.094 77.9155 18.094Z" fill="black"/>
<path d="M67.2811 17.854H65.1931L59.5291 5.99799H61.3771L66.1771 16.174H66.3211L71.097 5.99799H72.945L67.2811 17.854Z" fill="black"/>
<path d="M57.928 17.854H56.392V14.614L56.272 14.518V10.51C56.272 9.358 56 8.534 55.456 8.038C54.912 7.542 53.984 7.294 52.672 7.294C51.408 7.294 50.44 7.534 49.768 8.014C49.112 8.478 48.784 9.238 48.784 10.294V10.39H47.08V10.294C47.08 9.446 47.304 8.686 47.752 8.014C48.2 7.326 48.848 6.782 49.696 6.382C50.544 5.966 51.576 5.758 52.792 5.758C53.992 5.758 54.968 5.966 55.72 6.382C56.488 6.798 57.048 7.358 57.4 8.062C57.752 8.766 57.928 9.558 57.928 10.438V17.854ZM50.728 18.094C49.56 18.094 48.616 17.83 47.896 17.302C47.176 16.758 46.816 16.014 46.816 15.07C46.816 14.414 46.976 13.886 47.296 13.486C47.632 13.07 48.088 12.75 48.664 12.526C49.24 12.302 49.896 12.142 50.632 12.046L56.512 11.398V12.526L51.16 13.126C50.264 13.206 49.6 13.374 49.168 13.63C48.736 13.886 48.52 14.326 48.52 14.95C48.52 15.542 48.728 15.998 49.144 16.318C49.56 16.622 50.216 16.774 51.112 16.774C52.088 16.774 52.96 16.63 53.728 16.342C54.496 16.038 55.112 15.582 55.576 14.974C56.04 14.366 56.272 13.59 56.272 12.646L56.608 12.766V14.662H56.272C55.92 15.75 55.256 16.598 54.28 17.206C53.304 17.798 52.12 18.094 50.728 18.094Z" fill="black"/>
<path d="M45.5714 17.854H43.0034C41.8194 17.854 40.8754 17.574 40.1714 17.014C39.4834 16.454 39.1394 15.478 39.1394 14.086V3.16599H40.8674V14.182C40.8674 15.014 41.0754 15.574 41.4914 15.862C41.9074 16.15 42.5474 16.294 43.4114 16.294H45.5714V17.854ZM45.5714 7.46199H37.0274V5.99799H45.5714V7.46199Z" fill="black"/>
<path d="M29.68 18.094C28.112 18.094 26.808 17.862 25.768 17.398C24.744 16.934 23.984 16.302 23.488 15.502C22.992 14.686 22.744 13.774 22.744 12.766V12.622H24.472V12.934C24.472 13.702 24.64 14.35 24.976 14.878C25.328 15.406 25.888 15.806 26.656 16.078C27.424 16.35 28.432 16.486 29.68 16.486C30.768 16.486 31.648 16.39 32.32 16.198C33.008 16.006 33.52 15.71 33.856 15.31C34.192 14.894 34.36 14.382 34.36 13.774C34.36 12.878 34.08 12.23 33.52 11.83C32.976 11.414 32.112 11.086 30.928 10.846L27.52 10.198C26.656 10.022 25.864 9.774 25.144 9.454C24.44 9.134 23.872 8.694 23.44 8.134C23.024 7.558 22.816 6.822 22.816 5.926C22.816 5.382 22.936 4.854 23.176 4.342C23.432 3.814 23.816 3.342 24.328 2.926C24.84 2.494 25.504 2.158 26.32 1.918C27.152 1.662 28.144 1.534 29.296 1.534C30.816 1.534 32.056 1.774 33.016 2.254C33.976 2.734 34.688 3.382 35.152 4.198C35.616 4.998 35.848 5.886 35.848 6.862V7.006H34.12V6.718C34.12 5.95 33.952 5.302 33.616 4.774C33.28 4.23 32.752 3.822 32.032 3.55C31.312 3.278 30.36 3.142 29.176 3.142C28.12 3.142 27.248 3.246 26.56 3.454C25.872 3.646 25.36 3.942 25.024 4.342C24.704 4.726 24.544 5.214 24.544 5.806C24.544 6.398 24.664 6.878 24.904 7.246C25.16 7.614 25.536 7.902 26.032 8.11C26.544 8.318 27.192 8.51 27.976 8.686L31.36 9.358C32.32 9.534 33.152 9.798 33.856 10.15C34.56 10.502 35.104 10.966 35.488 11.542C35.888 12.102 36.088 12.798 36.088 13.63C36.088 14.382 35.864 15.102 35.416 15.79C34.968 16.478 34.272 17.038 33.328 17.47C32.384 17.886 31.168 18.094 29.68 18.094Z" fill="black"/>
<path fill-rule="evenodd" clip-rule="evenodd" d="M8.0363 0.650701C7.55724 0.354019 7.04891 0.0392151 5.54954 0.0392151C2.71403 0.0392151 0.420593 2.04076 0.420593 5.25157C0.420593 7.82022 2.00515 9.37975 2.79743 9.83844C3.01982 12.6719 3.46461 18.4354 3.46461 18.8215C3.46461 19.6279 4.46537 20.5133 5.54954 20.5133C6.63372 20.5133 7.72591 19.8159 7.88468 18.8215C7.97415 18.2611 8.0438 17.1302 8.1108 16.0421C8.1597 15.248 8.2072 14.4768 8.25997 13.9666C8.34337 13.5496 8.79372 12.7157 9.92793 12.7157C11.0621 12.7157 11.5125 13.5496 11.5959 13.9666C11.6487 14.4768 11.6962 15.248 11.7451 16.0421C11.8121 17.1302 11.8817 18.2611 11.9712 18.8215C12.1299 19.8159 13.2221 20.5133 14.3063 20.5133C15.3905 20.5133 16.3912 19.6279 16.3912 18.8215C16.3912 18.4354 16.836 12.6719 17.0584 9.83844C17.8507 9.37975 19.4353 7.82022 19.4353 5.25157C19.4353 2.04076 17.1418 0.0392151 14.3063 0.0392151C12.8069 0.0392151 12.2986 0.354019 11.8196 0.650701C11.3927 0.915084 10.989 1.16508 9.92793 1.16508C8.86687 1.16508 8.4632 0.915084 8.0363 0.650701Z" fill="#A7E4F2"/>
</svg>
